<svg version="1.1" id="Layer_1" xmlns="http://www.w3.org/2000/svg" xmlns:xlink="http://www.w3.org/1999/xlink" x="0px" y="0px"
	 width="100%" viewBox="0 0 512 512" enable-background="new 0 0 512 512" xml:space="preserve">
<path fill="transparent" opacity="1.000000" stroke="none" 
	d="
M1.000000,178.000000 
	C1.000000,118.666664 1.000000,59.833332 1.000000,1.000000 
	C171.666672,1.000000 342.333344,1.000000 513.000000,1.000000 
	C513.000000,171.666672 513.000000,342.333344 513.000000,513.000000 
	C342.333344,513.000000 171.666672,513.000000 1.000000,513.000000 
	C1.000000,401.500000 1.000000,290.000000 1.000000,178.000000 
M222.407532,238.116196 
	C213.653809,221.849594 204.851242,205.608978 196.169495,189.304047 
	C192.511658,182.434387 192.222961,182.127457 185.231247,185.942001 
	C172.813904,192.716614 160.331848,199.398209 148.175842,206.621841 
	C99.258507,235.690781 55.665699,271.559418 15.110537,311.290833 
	C12.114709,314.225800 11.394356,317.007538 12.434803,321.046631 
	C17.574949,341.001160 25.307970,359.908844 35.046432,378.006958 
	C45.832291,398.051636 59.244877,416.193237 75.025826,432.614868 
	C78.216225,435.934814 81.339775,437.076721 86.063637,436.184418 
	C108.727341,431.903442 130.634338,425.144501 152.135147,416.940125 
	C180.361435,406.169434 207.031067,392.122681 233.448547,377.647766 
	C249.333191,368.944122 264.717010,359.311066 280.165283,349.833893 
	C286.387024,346.016968 286.009857,345.674530 282.232910,339.312378 
	C262.355011,305.828552 242.591858,272.276550 222.407532,238.116196 
M386.843231,319.660736 
	C379.185730,304.681274 371.828644,289.538666 363.804932,274.757996 
	C349.349243,248.128754 334.889709,221.487350 319.713226,195.266937 
	C297.011108,156.044464 272.380676,118.016457 245.769592,81.325478 
	C230.134903,59.768570 213.823761,38.702126 197.802216,17.426128 
	C195.535446,14.415958 193.264908,11.781723 188.710388,13.590169 
	C174.031174,19.418779 159.177856,24.817389 144.578629,30.835350 
	C137.407257,33.791462 137.576721,34.295177 141.653412,40.984398 
	C155.259323,63.309650 169.065308,85.515854 182.430603,107.984207 
	C204.905228,145.766144 227.281311,183.609222 249.363419,221.621445 
	C272.614380,261.645691 295.689636,301.775604 318.441101,342.085419 
	C342.010010,383.843506 365.130859,425.854797 388.338745,467.815582 
	C390.325500,471.407715 392.293793,471.853394 395.348663,469.406860 
	C408.192169,459.121002 421.045227,448.846924 433.917725,438.597321 
	C436.757812,436.335907 437.413910,434.022522 435.811462,430.423828 
	C419.491180,393.773407 403.349487,357.043488 386.843231,319.660736 
M471.419128,391.920288 
	C478.459259,377.962677 485.670868,364.086548 492.380768,349.971954 
	C493.582672,347.443726 493.579956,343.635254 492.658691,340.917877 
	C485.603821,320.108307 478.690430,299.226685 470.768982,278.740204 
	C455.609375,239.534470 437.102600,201.881073 416.146332,165.444199 
	C397.435059,132.910782 376.537964,101.819565 353.036743,72.571594 
	C337.622192,53.387764 321.442871,34.814358 305.432068,16.116535 
	C301.483948,11.505815 297.508026,6.847470 290.543182,6.148606 
	C271.794312,4.267310 253.057419,3.254110 234.262360,5.180102 
	C231.879776,5.424254 229.547256,6.156863 225.924683,6.935457 
	C277.458160,66.898087 322.499023,130.057083 361.230774,197.628738 
	C400.033295,265.323853 431.788757,336.268585 457.256775,410.081451 
	C457.856415,410.098175 458.456055,410.114868 459.055664,410.131592 
	C463.038544,404.259949 467.021393,398.388275 471.419128,391.920288 
M106.717659,195.196381 
	C128.614731,181.889175 150.464981,168.503677 172.456665,155.354721 
	C175.970642,153.253693 177.341446,151.429840 175.288254,147.476364 
	C172.221329,141.570847 169.483139,135.489853 166.732086,129.425903 
	C154.284668,101.989044 141.846008,74.548065 129.490219,47.069889 
	C126.679886,40.819962 126.263702,40.581833 120.619171,44.225201 
	C100.502357,57.209961 82.529335,72.600769 66.702736,90.646599 
	C43.847538,116.706573 27.386860,146.286865 16.536558,179.076965 
	C6.084471,210.663635 3.613910,243.229538 5.099997,276.232483 
	C5.196146,278.367767 6.003345,280.471069 6.479781,282.589233 
	C7.123932,282.868347 7.768083,283.147461 8.412233,283.426575 
	C10.259700,281.083557 11.895326,278.529022 13.989277,276.432129 
	C26.918814,263.484436 39.324532,249.917877 53.109467,237.944443 
	C70.169144,223.126587 88.401657,209.658981 106.717659,195.196381 
M134.997528,478.500488 
	C149.291168,484.803314 163.222855,492.167114 177.952423,497.192108 
	C210.443588,508.276520 243.998886,511.978668 278.336823,509.157410 
	C311.641479,506.421021 343.075409,497.492432 372.873657,482.545929 
	C378.179108,479.884796 378.177490,479.461823 374.649689,474.457764 
	C353.745575,444.806000 332.849762,415.148376 311.993958,385.462677 
	C307.888916,379.619629 307.872437,379.531433 301.824829,383.167877 
	C300.826599,383.768158 299.876648,384.448181 298.886841,385.063080 
	C273.676086,400.724731 247.459747,414.442566 220.171387,426.140656 
	C185.788055,440.880219 150.271561,452.015289 113.784370,460.152069 
	C112.599472,460.416321 111.522003,461.162262 108.744614,462.446625 
	C118.072983,468.171021 126.209404,473.163940 134.997528,478.500488 
M456.847198,186.675079 
	C475.752808,223.359451 492.789612,260.862274 506.273438,299.978699 
	C517.686340,225.340698 501.701477,157.680481 454.447144,98.441086 
	C423.706390,59.903526 384.587402,32.953098 337.429688,17.897139 
	C337.629608,19.499378 338.242340,20.599276 339.038666,21.544531 
	C351.465179,36.294670 364.006012,50.949448 376.342346,65.774452 
	C407.324982,103.007378 434.015717,143.115540 456.847198,186.675079 
z"/>
<path fill="#231F20" opacity="1.000000" stroke="none" 
	d="
M222.598206,238.432220 
	C242.591858,272.276550 262.355011,305.828552 282.232910,339.312378 
	C286.009857,345.674530 286.387024,346.016968 280.165283,349.833893 
	C264.717010,359.311066 249.333191,368.944122 233.448547,377.647766 
	C207.031067,392.122681 180.361435,406.169434 152.135147,416.940125 
	C130.634338,425.144501 108.727341,431.903442 86.063637,436.184418 
	C81.339775,437.076721 78.216225,435.934814 75.025826,432.614868 
	C59.244877,416.193237 45.832291,398.051636 35.046432,378.006958 
	C25.307970,359.908844 17.574949,341.001160 12.434803,321.046631 
	C11.394356,317.007538 12.114709,314.225800 15.110537,311.290833 
	C55.665699,271.559418 99.258507,235.690781 148.175842,206.621841 
	C160.331848,199.398209 172.813904,192.716614 185.231247,185.942001 
	C192.222961,182.127457 192.511658,182.434387 196.169495,189.304047 
	C204.851242,205.608978 213.653809,221.849594 222.598206,238.432220 
z"/>
<path fill="#231F20" opacity="1.000000" stroke="none" 
	d="
M387.000519,319.998291 
	C403.349487,357.043488 419.491180,393.773407 435.811462,430.423828 
	C437.413910,434.022522 436.757812,436.335907 433.917725,438.597321 
	C421.045227,448.846924 408.192169,459.121002 395.348663,469.406860 
	C392.293793,471.853394 390.325500,471.407715 388.338745,467.815582 
	C365.130859,425.854797 342.010010,383.843506 318.441101,342.085419 
	C295.689636,301.775604 272.614380,261.645691 249.363419,221.621445 
	C227.281311,183.609222 204.905228,145.766144 182.430603,107.984207 
	C169.065308,85.515854 155.259323,63.309650 141.653412,40.984398 
	C137.576721,34.295177 137.407257,33.791462 144.578629,30.835350 
	C159.177856,24.817389 174.031174,19.418779 188.710388,13.590169 
	C193.264908,11.781723 195.535446,14.415958 197.802216,17.426128 
	C213.823761,38.702126 230.134903,59.768570 245.769592,81.325478 
	C272.380676,118.016457 297.011108,156.044464 319.713226,195.266937 
	C334.889709,221.487350 349.349243,248.128754 363.804932,274.757996 
	C371.828644,289.538666 379.185730,304.681274 387.000519,319.998291 
z"/>
<path fill="#231F20" opacity="1.000000" stroke="none" 
	d="
M471.211700,392.218445 
	C467.021393,398.388275 463.038544,404.259949 459.055664,410.131592 
	C458.456055,410.114868 457.856415,410.098175 457.256775,410.081451 
	C431.788757,336.268585 400.033295,265.323853 361.230774,197.628738 
	C322.499023,130.057083 277.458160,66.898087 225.924683,6.935457 
	C229.547256,6.156863 231.879776,5.424254 234.262360,5.180102 
	C253.057419,3.254110 271.794312,4.267310 290.543182,6.148606 
	C297.508026,6.847470 301.483948,11.505815 305.432068,16.116535 
	C321.442871,34.814358 337.622192,53.387764 353.036743,72.571594 
	C376.537964,101.819565 397.435059,132.910782 416.146332,165.444199 
	C437.102600,201.881073 455.609375,239.534470 470.768982,278.740204 
	C478.690430,299.226685 485.603821,320.108307 492.658691,340.917877 
	C493.579956,343.635254 493.582672,347.443726 492.380768,349.971954 
	C485.670868,364.086548 478.459259,377.962677 471.211700,392.218445 
z"/>
<path fill="#231F20" opacity="1.000000" stroke="none" 
	d="
M106.422562,195.402191 
	C88.401657,209.658981 70.169144,223.126587 53.109467,237.944443 
	C39.324532,249.917877 26.918814,263.484436 13.989277,276.432129 
	C11.895326,278.529022 10.259700,281.083557 8.412233,283.426575 
	C7.768083,283.147461 7.123932,282.868347 6.479781,282.589233 
	C6.003345,280.471069 5.196146,278.367767 5.099997,276.232483 
	C3.613910,243.229538 6.084471,210.663635 16.536558,179.076965 
	C27.386860,146.286865 43.847538,116.706573 66.702736,90.646599 
	C82.529335,72.600769 100.502357,57.209961 120.619171,44.225201 
	C126.263702,40.581833 126.679886,40.819962 129.490219,47.069889 
	C141.846008,74.548065 154.284668,101.989044 166.732086,129.425903 
	C169.483139,135.489853 172.221329,141.570847 175.288254,147.476364 
	C177.341446,151.429840 175.970642,153.253693 172.456665,155.354721 
	C150.464981,168.503677 128.614731,181.889175 106.422562,195.402191 
z"/>
<path fill="#231F20" opacity="1.000000" stroke="none" 
	d="
M134.671661,478.328674 
	C126.209404,473.163940 118.072983,468.171021 108.744614,462.446625 
	C111.522003,461.162262 112.599472,460.416321 113.784370,460.152069 
	C150.271561,452.015289 185.788055,440.880219 220.171387,426.140656 
	C247.459747,414.442566 273.676086,400.724731 298.886841,385.063080 
	C299.876648,384.448181 300.826599,383.768158 301.824829,383.167877 
	C307.872437,379.531433 307.888916,379.619629 311.993958,385.462677 
	C332.849762,415.148376 353.745575,444.806000 374.649689,474.457764 
	C378.177490,479.461823 378.179108,479.884796 372.873657,482.545929 
	C343.075409,497.492432 311.641479,506.421021 278.336823,509.157410 
	C243.998886,511.978668 210.443588,508.276520 177.952423,497.192108 
	C163.222855,492.167114 149.291168,484.803314 134.671661,478.328674 
z"/>
<path fill="#231F20" opacity="1.000000" stroke="none" 
	d="
M456.676483,186.346176 
	C434.015717,143.115540 407.324982,103.007378 376.342346,65.774452 
	C364.006012,50.949448 351.465179,36.294670 339.038666,21.544531 
	C338.242340,20.599276 337.629608,19.499378 337.429688,17.897139 
	C384.587402,32.953098 423.706390,59.903526 454.447144,98.441086 
	C501.701477,157.680481 517.686340,225.340698 506.273438,299.978699 
	C492.789612,260.862274 475.752808,223.359451 456.676483,186.346176 
z"/>
</svg>