<svg version="1.1" id="Layer_1" xmlns="http://www.w3.org/2000/svg" xmlns:xlink="http://www.w3.org/1999/xlink" x="0px" y="0px"
	 width="100%" viewBox="0 0 86 84" enable-background="new 0 0 86 84" xml:space="preserve">
<path fill="#000000" opacity="1.000000" stroke="none" 
	d="
M87.000000,3.000000 
	C87.000000,29.687561 87.000000,56.375122 86.531342,83.531235 
	C76.495728,83.999794 66.928398,84.041405 57.362206,83.956192 
	C55.879013,83.942978 54.400993,83.349342 53.310898,83.001587 
	C56.842510,81.982582 59.983810,80.986099 63.406044,79.900505 
	C59.531849,74.285385 56.362816,69.497063 52.936359,64.900650 
	C52.296692,64.042564 50.048229,63.209358 49.514999,63.621933 
	C41.078217,70.149727 31.092768,73.063736 19.572111,76.504555 
	C22.439199,78.230728 24.288059,79.539093 26.300983,80.505829 
	C28.757244,81.685493 31.351318,82.578209 33.459312,83.782883 
	C23.100502,83.970741 13.168175,83.970741 3.309372,83.970741 
	C3.309372,73.328262 3.309372,63.205788 3.517925,53.350342 
	C5.972801,58.369633 7.803610,63.391411 10.638479,67.761925 
	C12.083941,69.990395 16.022110,72.930725 17.653910,72.332344 
	C28.386972,68.396606 38.798512,63.584057 49.109829,59.145809 
	C43.203510,49.267628 37.918579,40.428703 32.181534,30.833626 
	C22.563028,37.857948 12.936625,44.888039 3.166545,51.519146 
	C3.076571,49.429077 3.130272,47.737999 3.449737,46.172886 
	C4.174107,46.318039 4.802403,46.543674 5.066700,46.326447 
	C13.387034,39.487873 21.671967,32.606228 29.506697,26.108957 
	C27.788326,20.746416 25.912138,14.891369 24.307552,9.234871 
	C37.893097,32.330902 51.207035,55.228386 64.717552,78.463943 
	C68.481506,75.635040 73.597832,74.199471 71.387291,69.124054 
	C66.979881,59.004623 62.277836,48.942543 56.766567,39.394093 
	C50.823498,29.097546 43.743637,19.461903 37.299469,9.447997 
	C33.596165,3.693242 28.452932,3.414331 23.594700,8.968811 
	C19.821846,11.589330 15.675633,13.646610 13.189477,16.952370 
	C9.503375,21.853655 6.993853,27.639809 3.583541,32.860283 
	C3.183610,22.811512 3.183610,12.951735 3.183610,3.456058 
	C15.437943,3.456058 27.184679,3.456058 38.970081,3.782451 
	C53.873600,23.726427 67.061768,44.328949 76.671234,67.691498 
	C78.813187,63.704380 81.942902,59.122322 80.995659,55.653595 
	C75.548111,35.704994 63.216560,19.440332 51.494667,3.101018 
	C63.635860,3.009032 75.317932,3.004516 87.000000,3.000000 
M70.475311,13.996294 
	C66.681625,11.198002 62.887936,8.399710 59.094246,5.601418 
	C58.968079,5.923951 58.841908,6.246484 58.715740,6.569017 
	C67.013672,20.418568 75.311607,34.268120 83.664597,48.209560 
	C85.683174,34.550091 81.060631,23.500534 70.475311,13.996294 
z"/>
<path fill="#FFFFFF" opacity="1.000000" stroke="none" 
	d="
M3.309372,53.083313 
	C3.309372,63.205788 3.309372,73.328262 3.309372,83.970741 
	C13.168175,83.970741 23.100502,83.970741 33.940277,83.774147 
	C40.872009,83.393074 46.896294,83.208603 52.920578,83.024124 
	C54.400993,83.349342 55.879013,83.942978 57.362206,83.956192 
	C66.928398,84.041405 76.495728,83.999794 86.531342,83.999893 
	C85.669891,84.333336 84.340378,84.954758 83.009583,84.957512 
	C55.729237,85.014053 28.448736,85.000000 1.084134,85.000000 
	C1.084134,57.110470 1.084134,29.220602 1.084134,1.000000 
	C23.844206,1.000000 46.690010,1.000000 69.535812,1.000000 
	C74.858833,1.000000 80.182198,0.973258 85.504295,1.043574 
	C86.006989,1.050215 86.501625,1.666665 87.000000,2.499999 
	C75.317932,3.004516 63.635860,3.009032 51.029655,3.074100 
	C46.380821,3.241788 42.656120,3.348923 38.931416,3.456058 
	C27.184679,3.456058 15.437943,3.456058 3.183610,3.456058 
	C3.183610,12.951735 3.183610,22.811512 3.477896,33.263466 
	C3.576113,37.919399 3.380043,41.983158 3.183974,46.046917 
	C3.130272,47.737999 3.076571,49.429077 3.223023,51.810482 
	C3.385242,52.694977 3.347307,52.889145 3.309372,53.083313 
z"/>
<path fill="#252122" opacity="1.000000" stroke="none" 
	d="
M3.517925,53.350342 
	C3.347307,52.889145 3.385242,52.694977 3.366699,52.209469 
	C12.936625,44.888039 22.563028,37.857948 32.181534,30.833626 
	C37.918579,40.428703 43.203510,49.267628 49.109829,59.145809 
	C38.798512,63.584057 28.386972,68.396606 17.653910,72.332344 
	C16.022110,72.930725 12.083941,69.990395 10.638479,67.761925 
	C7.803610,63.391411 5.972801,58.369633 3.517925,53.350342 
z"/>
<path fill="#262223" opacity="1.000000" stroke="none" 
	d="
M23.963940,8.964058 
	C28.452932,3.414331 33.596165,3.693242 37.299469,9.447997 
	C43.743637,19.461903 50.823498,29.097546 56.766567,39.394093 
	C62.277836,48.942543 66.979881,59.004623 71.387291,69.124054 
	C73.597832,74.199471 68.481506,75.635040 64.717552,78.463943 
	C51.207035,55.228386 37.893097,32.330902 24.289383,9.216439 
	C23.999607,8.999458 23.963940,8.964058 23.963940,8.964058 
z"/>
<path fill="#272324" opacity="1.000000" stroke="none" 
	d="
M38.970081,3.782451 
	C42.656120,3.348923 46.380821,3.241788 50.570534,3.161571 
	C63.216560,19.440332 75.548111,35.704994 80.995659,55.653595 
	C81.942902,59.122322 78.813187,63.704380 76.671234,67.691498 
	C67.061768,44.328949 53.873600,23.726427 38.970081,3.782451 
z"/>
<path fill="#262223" opacity="1.000000" stroke="none" 
	d="
M53.310898,83.001587 
	C46.896294,83.208603 40.872009,83.393074 34.366760,83.586288 
	C31.351318,82.578209 28.757244,81.685493 26.300983,80.505829 
	C24.288059,79.539093 22.439199,78.230728 19.572111,76.504555 
	C31.092768,73.063736 41.078217,70.149727 49.514999,63.621933 
	C50.048229,63.209358 52.296692,64.042564 52.936359,64.900650 
	C56.362816,69.497063 59.531849,74.285385 63.406044,79.900505 
	C59.983810,80.986099 56.842510,81.982582 53.310898,83.001587 
z"/>
<path fill="#262223" opacity="1.000000" stroke="none" 
	d="
M3.449737,46.172886 
	C3.380043,41.983158 3.576113,37.919399 3.877826,33.452461 
	C6.993853,27.639809 9.503375,21.853655 13.189477,16.952370 
	C15.675633,13.646610 19.821846,11.589330 23.594700,8.968811 
	C23.963940,8.964058 23.999607,8.999458 24.017778,9.017890 
	C25.912138,14.891369 27.788326,20.746416 29.506697,26.108957 
	C21.671967,32.606228 13.387034,39.487873 5.066700,46.326447 
	C4.802403,46.543674 4.174107,46.318039 3.449737,46.172886 
z"/>
<path fill="#282425" opacity="1.000000" stroke="none" 
	d="
M70.726707,14.247377 
	C81.060631,23.500534 85.683174,34.550091 83.664597,48.209560 
	C75.311607,34.268120 67.013672,20.418568 58.715740,6.569017 
	C58.841908,6.246484 58.968079,5.923951 59.094246,5.601418 
	C62.887936,8.399710 66.681625,11.198002 70.726707,14.247377 
z"/>
</svg>